<?xml version="1.0" encoding="UTF-8" standalone="no"?>
<!-- Created with Inkscape (http://www.inkscape.org/) -->

<svg
   xmlns:dc="http://purl.org/dc/elements/1.1/"
   xmlns:cc="http://creativecommons.org/ns#"
   xmlns:rdf="http://www.w3.org/1999/02/22-rdf-syntax-ns#"
   xmlns:svg="http://www.w3.org/2000/svg"
   xmlns="http://www.w3.org/2000/svg"
   xmlns:sodipodi="http://sodipodi.sourceforge.net/DTD/sodipodi-0.dtd"
   xmlns:inkscape="http://www.inkscape.org/namespaces/inkscape"
   width="48"
   height="48"
   viewBox="0 0 12.7 12.7"
   version="1.1"
   id="svg8"
   inkscape:version="0.92.3 (d244b95, 2018-08-02)"
   sodipodi:docname="drawing.svg">
  <defs
     id="defs2" />
  <sodipodi:namedview
     id="base"
     pagecolor="#ffffff"
     bordercolor="#666666"
     borderopacity="1.0"
     inkscape:pageopacity="0.0"
     inkscape:pageshadow="2"
     inkscape:zoom="11.2"
     inkscape:cx="31.850008"
     inkscape:cy="17.492823"
     inkscape:document-units="mm"
     inkscape:current-layer="layer1"
     showgrid="true"
     units="px"
     inkscape:snap-grids="true"
     showguides="false"
     inkscape:window-width="1853"
     inkscape:window-height="1016"
     inkscape:window-x="67"
     inkscape:window-y="27"
     inkscape:window-maximized="1">
    <inkscape:grid
       type="xygrid"
       id="grid109" />
  </sodipodi:namedview>
  <metadata
     id="metadata5">
    <rdf:RDF>
      <cc:Work
         rdf:about="">
        <dc:format>image/svg+xml</dc:format>
        <dc:type
           rdf:resource="http://purl.org/dc/dcmitype/StillImage" />
        <dc:title></dc:title>
      </cc:Work>
    </rdf:RDF>
  </metadata>
  <g
     inkscape:label="Layer 1"
     inkscape:groupmode="layer"
     id="layer1"
     transform="translate(0,-284.29998)">
    <flowRoot
       xml:space="preserve"
       id="flowRoot10"
       style="fill:black;fill-opacity:1;stroke:none;font-family:sans-serif;font-style:normal;font-weight:normal;font-size:40px;line-height:1.25;letter-spacing:0px;word-spacing:0px"><flowRegion
         id="flowRegion12"><rect
           id="rect14"
           width="362.85715"
           height="351.42856"
           x="-37.142857"
           y="-1140.5714" /></flowRegion><flowPara
         id="flowPara16"></flowPara></flowRoot>    <text
       xml:space="preserve"
       style="font-style:normal;font-weight:normal;font-size:10.58333302px;line-height:1.25;font-family:sans-serif;letter-spacing:0px;word-spacing:0px;fill:#000000;fill-opacity:1;stroke:none;stroke-width:0.26458332"
       x="9.0714283"
       y="-11.428606"
       id="text20"><tspan
         sodipodi:role="line"
         id="tspan18"
         x="9.0714283"
         y="-2.0648367"
         style="stroke-width:0.26458332"></tspan></text>
    <flowRoot
       xml:space="preserve"
       id="flowRoot30"
       style="font-style:normal;font-weight:normal;font-size:40px;line-height:1.25;font-family:sans-serif;letter-spacing:0px;word-spacing:0px;fill:#000000;fill-opacity:1;stroke:none"
       transform="matrix(0.26458333,0,0,0.26458333,0,284.29998)"><flowRegion
         id="flowRegion32"><rect
           id="rect34"
           width="60"
           height="57.142857"
           x="-2.8571429"
           y="-3.4285715" /></flowRegion><flowPara
         id="flowPara36"> B</flowPara></flowRoot>    <rect
       style="fill:#ff0000;stroke-width:0.26458332"
       id="rect60"
       width="12.76212"
       height="12.728706"
       x="-0.016704345"
       y="284.28796" />
    <flowRoot
       xml:space="preserve"
       id="flowRoot65"
       style="fill:black;fill-opacity:1;stroke:none;font-family:sans-serif;font-style:normal;font-weight:normal;font-size:40px;line-height:1.25;letter-spacing:0px;word-spacing:0px"><flowRegion
         id="flowRegion67"><rect
           id="rect69"
           width="39.39595"
           height="40.848045"
           x="3.5355339"
           y="2.6062698" /></flowRegion><flowPara
         id="flowPara71"></flowPara></flowRoot>    <flowRoot
       xml:space="preserve"
       id="flowRoot77"
       style="fill:black;fill-opacity:1;stroke:none;font-family:sans-serif;font-style:normal;font-weight:normal;font-size:40px;line-height:1.25;letter-spacing:0px;word-spacing:0px"><flowRegion
         id="flowRegion79"><rect
           id="rect81"
           width="35.089287"
           height="40.357143"
           x="7.2321429"
           y="7.1071429" /></flowRegion><flowPara
         id="flowPara83"></flowPara></flowRoot>    <text
       xml:space="preserve"
       style="font-style:normal;font-weight:normal;font-size:10.58333302px;line-height:1.25;font-family:sans-serif;letter-spacing:0px;word-spacing:0px;fill:#000000;fill-opacity:1;stroke:none;stroke-width:0.26458332"
       x="11.268415"
       y="296.36215"
       id="text87"><tspan
         sodipodi:role="line"
         id="tspan85"
         x="11.268415"
         y="305.72592"
         style="stroke-width:0.26458332"></tspan></text>
    <flowRoot
       xml:space="preserve"
       id="flowRoot89"
       style="font-style:normal;font-weight:normal;font-size:40px;line-height:1.25;font-family:sans-serif;letter-spacing:0px;word-spacing:0px;fill:#000000;fill-opacity:1;stroke:none"
       transform="matrix(0.26458333,0,0,0.26458333,0,284.29998)"><flowRegion
         id="flowRegion91"><rect
           id="rect93"
           width="41.160713"
           height="41.339287"
           x="0.71428573"
           y="3.5357141" /></flowRegion><flowPara
         id="flowPara95">bbB</flowPara></flowRoot>    <flowRoot
       xml:space="preserve"
       id="flowRoot97"
       style="fill:black;fill-opacity:1;stroke:none;font-family:sans-serif;font-style:normal;font-weight:normal;font-size:40px;line-height:1.25;letter-spacing:0px;word-spacing:0px"><flowRegion
         id="flowRegion99"><rect
           id="rect101"
           width="43.035713"
           height="40.80357"
           x="1.3392857"
           y="3.4464285" /></flowRegion><flowPara
         id="flowPara103"></flowPara></flowRoot>    <text
       xml:space="preserve"
       style="font-style:normal;font-weight:normal;font-size:6.3499999px;line-height:1.25;font-family:sans-serif;letter-spacing:0px;word-spacing:0px;fill:#000000;fill-opacity:1;stroke:none;stroke-width:0.26458332"
       x="4.5593376"
       y="293.05484"
       id="text107"><tspan
         sodipodi:role="line"
         id="tspan105"
         x="4.5593376"
         y="293.05484"
         style="stroke-width:0.26458332">B</tspan></text>
    <path
       style="fill:#ffff00;stroke-width:0.08928572"
       d="M 0.0107225,23.98932 V -0.02853764 h 24.0625005 24.0625 V 23.98932 48.007177 H 24.073223 0.0107225 Z M 28.28966,32.853322 c 1.049751,-0.299935 1.768942,-0.684401 2.382661,-1.273723 0.967367,-0.928914 1.331036,-1.872441 1.325315,-3.438494 -0.0077,-2.118125 -1.079856,-3.661341 -3.009121,-4.331352 -0.449742,-0.15619 -0.450256,-0.156815 -0.18315,-0.223123 0.508905,-0.126333 1.308519,-0.612458 1.655142,-1.006243 0.53486,-0.607633 0.734377,-1.222584 0.780362,-2.405231 0.03242,-0.833664 0.008,-1.103524 -0.145522,-1.608993 -0.456024,-1.50136 -1.697646,-2.466186 -3.659443,-2.843643 -0.497214,-0.09567 -1.525108,-0.126058 -4.263393,-0.126058 h -3.608217 v 8.755732 8.75573 l 4.040179,-0.03515 c 3.753017,-0.03266 4.086023,-0.04825 4.685187,-0.219448 z"
       id="path111"
       inkscape:connector-curvature="0"
       transform="matrix(0.26458333,0,0,0.26458333,0,284.29998)" />
    <path
       style="fill:#ffff00;stroke-width:0.08928572"
       d="m 21.975008,27.971795 v -3.178904 h 2.317034 c 1.360969,0 2.512265,0.04106 2.790179,0.09952 1.107397,0.232919 1.878225,0.828385 2.167354,1.674286 0.317322,0.92838 0.256102,2.282382 -0.138311,3.059073 -0.257001,0.506095 -0.892234,1.006359 -1.575508,1.240757 -0.563071,0.193162 -0.778592,0.210353 -3.083069,0.245928 l -2.477679,0.03825 z"
       id="path113"
       inkscape:connector-curvature="0"
       transform="matrix(0.26458333,0,0,0.26458333,0,284.29998)" />
    <path
       style="fill:#ffff00;stroke-width:0.08928572"
       d="m 21.975008,20.146605 v -2.603211 l 2.34375,0.03928 c 2.601611,0.0436 2.962127,0.105552 3.656774,0.628337 0.600011,0.451562 0.829833,1.001652 0.829833,1.986237 0,1.022342 -0.231956,1.544219 -0.880766,1.981627 -0.703613,0.474354 -0.88595,0.502247 -3.516555,0.537932 l -2.433036,0.033 z"
       id="path115"
       inkscape:connector-curvature="0"
       transform="matrix(0.26458333,0,0,0.26458333,0,284.29998)" />
    <path
       style="fill:#ff0000;stroke-width:0.02362351"
       d="m 3.9058361,290.82207 v -2.31279 l 0.5019995,0.001 c 0.2760998,7.9e-4 0.7465031,0.01 1.0453404,0.0202 0.4991058,0.0172 0.5583957,0.0238 0.7282617,0.0817 0.3393138,0.11554 0.5615942,0.29636 0.6861561,0.55816 0.065268,0.13718 0.073991,0.1815 0.0818,0.41566 0.00481,0.14416 -0.00344,0.32081 -0.018336,0.39254 -0.060329,0.29061 -0.2775421,0.52084 -0.578685,0.61338 l -0.1638605,0.0504 0.1531417,0.0496 c 0.4558241,0.1477 0.7375742,0.4823 0.8043772,0.95527 0.1173491,0.83082 -0.4296825,1.42142 -1.3503153,1.45786 -0.1364258,0.005 -0.6174597,0.0142 -1.068964,0.0196 l -0.8209169,0.01 z m 1.7743088,1.79802 c 0.3127113,-0.0304 0.4762338,-0.0948 0.6243605,-0.24568 0.1540873,-0.15698 0.2110833,-0.32206 0.2089118,-0.60508 -8.466e-4,-0.11044 -0.013586,-0.24349 -0.028309,-0.29566 -0.042769,-0.15155 -0.159054,-0.31286 -0.281567,-0.39057 -0.2171528,-0.13774 -0.2848109,-0.14818 -1.0279411,-0.15854 l -0.6791759,-0.009 v 0.8484 c 0,0.46663 0.00709,0.8555 0.015748,0.86416 0.023543,0.0235 0.9071438,0.0178 1.1679722,-0.008 z m 0.1406884,-2.23469 c 0.2307029,-0.0525 0.3688705,-0.15101 0.4586343,-0.32711 0.063107,-0.12379 0.071371,-0.16359 0.071137,-0.34254 -2.125e-4,-0.1637 -0.01079,-0.22394 -0.05523,-0.31461 -0.077442,-0.15802 -0.2173223,-0.26923 -0.4164292,-0.33108 -0.1519214,-0.0472 -0.2167038,-0.0516 -0.7683103,-0.0522 l -0.6023997,-6.6e-4 -0.00626,0.7028 -0.00626,0.7028 h 0.5803702 c 0.4443494,0 0.6188937,-0.009 0.7447425,-0.0374 z"
       id="path131"
       inkscape:connector-curvature="0" />
  </g>
</svg>
